<svg width="287.3" height="72.1" viewBox="0 0 287.3 72.1" xmlns="http://www.w3.org/2000/svg"><g id="svgGroup" stroke-linecap="round" fill-rule="evenodd" font-size="9pt" stroke="#000" stroke-width="0.25mm" fill="#000" style="stroke:#000;stroke-width:0.25mm;fill:#000"><path d="M 110.2 70.9 L 68.2 70.9 L 68.2 0.9 L 110.2 0.9 L 110.2 9.1 L 77.7 9.1 L 77.7 30.4 L 105.7 30.4 L 105.7 38.4 L 77.7 38.4 L 77.7 62.7 L 110.2 62.7 L 110.2 70.9 Z M 165.7 70.9 L 123.7 70.9 L 123.7 0.9 L 165.7 0.9 L 165.7 9.1 L 133.2 9.1 L 133.2 30.4 L 161.2 30.4 L 161.2 38.4 L 133.2 38.4 L 133.2 62.7 L 165.7 62.7 L 165.7 70.9 Z M 228.9 67.9 L 220 72.1 L 211.3 53.1 A 30.586 30.586 0 0 0 208.709 48.526 Q 206.203 44.922 203 43 Q 198.645 40.387 192.164 40.05 A 37.847 37.847 0 0 0 190.2 40 L 188.7 40 L 188.7 70.9 L 179.2 70.9 L 179.2 1.1 Q 184.5 0.6 189.35 0.35 A 187.94 187.94 0 0 1 195.666 0.135 A 226.267 226.267 0 0 1 199.7 0.1 Q 212.5 0.1 218.95 5.3 A 17.414 17.414 0 0 1 223.58 10.834 Q 225.4 14.344 225.4 18.7 A 19.88 19.88 0 0 1 224.749 23.92 A 14.672 14.672 0 0 1 221.05 30.45 Q 216.7 34.9 208.5 37.1 A 23.656 23.656 0 0 1 211.929 38.963 A 20.427 20.427 0 0 1 213.3 39.95 Q 215.269 41.497 217.105 44.01 A 29.29 29.29 0 0 1 217.35 44.35 Q 219.3 47.1 221.3 51.5 L 228.9 67.9 Z M 263.2 70.9 L 253.7 70.9 L 253.7 44.3 L 229.4 4.8 L 237.4 0 L 258.8 35.5 L 279.8 0.4 L 287.3 4.8 L 263.2 44.3 L 263.2 70.9 Z M 0 70.7 L 0 1.1 Q 4.7 0.6 9.2 0.35 A 151.31 151.31 0 0 1 13.386 0.179 Q 16.238 0.1 19.5 0.1 A 48.608 48.608 0 0 1 26.844 0.626 Q 30.778 1.228 34.11 2.518 A 29.198 29.198 0 0 1 35.05 2.9 A 30.978 30.978 0 0 1 42.339 7.22 A 27.223 27.223 0 0 1 45.85 10.6 Q 50.1 15.5 52.15 21.95 A 44.256 44.256 0 0 1 54.122 32.946 A 51.506 51.506 0 0 1 54.2 35.8 A 45.309 45.309 0 0 1 52.719 47.497 A 41.802 41.802 0 0 1 52.1 49.6 Q 50 56.1 45.65 61.05 Q 41.3 66 34.55 68.85 Q 28.275 71.5 19.709 71.686 A 60.192 60.192 0 0 1 18.4 71.7 A 186.98 186.98 0 0 1 14.329 71.658 Q 12.315 71.614 10.522 71.524 A 101.5 101.5 0 0 1 8.45 71.4 Q 4.2 71.1 0 70.7 Z M 9.5 8.8 L 9.5 62.9 Q 11.6 63.2 13.9 63.3 A 107.265 107.265 0 0 0 17.463 63.394 A 121.297 121.297 0 0 0 18.7 63.4 A 37.906 37.906 0 0 0 24.864 62.928 Q 29.793 62.115 33.4 59.9 Q 39.1 56.4 41.8 50.15 A 32.292 32.292 0 0 0 44.054 42.076 A 42.502 42.502 0 0 0 44.5 35.8 Q 44.5 28.6 41.8 22.3 Q 39.1 16 33.5 12.15 A 20.895 20.895 0 0 0 26.448 9.09 Q 23.607 8.411 20.296 8.316 A 38.008 38.008 0 0 0 19.2 8.3 Q 16.3 8.3 13.9 8.45 Q 11.5 8.6 9.5 8.8 Z M 188.7 8.5 L 188.7 32 L 199.7 32 A 26.489 26.489 0 0 0 204.623 31.569 Q 208.552 30.825 211.4 28.8 Q 215.9 25.6 215.9 19.6 A 9.811 9.811 0 0 0 212.627 12.136 A 13.272 13.272 0 0 0 211.7 11.35 A 13.923 13.923 0 0 0 207.336 9.128 Q 205.407 8.518 203.077 8.27 A 31.944 31.944 0 0 0 199.7 8.1 Q 196.526 8.1 193.962 8.187 A 118.974 118.974 0 0 0 193.6 8.2 Q 190.9 8.3 188.7 8.5 Z" vector-effect="non-scaling-stroke"/></g></svg>
