<?xml version="1.0" encoding="iso-8859-1"?>
<!-- Uploaded to: SVG Repo, www.svgrepo.com, Generator: SVG Repo Mixer Tools -->
<svg height="800px" width="800px" version="1.1" id="Capa_1" xmlns="http://www.w3.org/2000/svg" xmlns:xlink="http://www.w3.org/1999/xlink" 
	 viewBox="0 0 256.223 256.223" xml:space="preserve">
<g>
	<g>
		<g>
			<path style="fill:#595149;" d="M110.19,120.788c-0.588-0.445-22.829-12.508-31.854-21.545
				c-9.026-9.038-22.808-23.003-26.252-44.755c-3.444-21.752,13.414-38.283,16.775-42.838c3.361-4.555,8.381-6.614,7.899-8.219
				c-0.481-1.604-5.631-2.675-6.535-1.981c-0.904,0.694-6.389,7.776-10.012,12.891c-3.623,5.115-9.162,12.776-9.941,12.119
				c-0.779-0.658-8.55-7.434-7.966-11.471c0.584-4.038,5.85-13.284,4.827-13.576c-1.023-0.291-2.987-1.841-3.453-1.3
				c-0.466,0.54-5.798,15.043-4.71,16.899c1.087,1.856,8.602,13.674,8.422,15.606c-0.179,1.932-3.186,16.264-4.679,16.513
				c-1.493,0.249-5.635-1.117-6.76-2.197c-1.125-1.081-8.149-20.452-9.624-20.396c-1.475,0.056-2.896-0.469-2.641,1.31
				c0.255,1.778,8.117,25.711,9.312,26.408c1.195,0.698,8.979,2.797,10.085,4.46c1.105,1.664,7.655,17.093,7.874,19.257
				c0.219,2.164,28.042,36.805,60.354,52.912L110.19,120.788z"/>
			<path style="fill:#82746E;" d="M115.986,128.54c0,0-9.264-21.584-12.003-33.247C101.242,83.63,89.65,59.547,89.22,53.841
				c-0.43-5.705-0.837-14.5-2.01-14.984c-1.173-0.484-3.62,12.566-3.192,18.51c0.428,5.943,6.92,19.297,8.068,23.345
				c1.147,4.048,8.556,20.972,8.779,22.637c0.224,1.665-4.927-1.937-5.86-3.132c-0.933-1.195-8.863-10.995-9.737-20.268
				c-0.875-9.273-0.048-10.455-1.401-9.99c-1.354,0.465-2.428,18.991-1.734,20.659c0.694,1.668,10.721,13.622,12.949,15.064
				c2.228,1.442,7.392,3.143,8.083,5.287c0.69,2.144,5.579,17.518,5.579,17.518L115.986,128.54z"/>
		</g>
		<g>
			<path style="fill:#595149;" d="M146.033,120.788c0.589-0.445,22.829-12.508,31.854-21.545
				c9.026-9.038,22.809-23.003,26.253-44.755c3.444-21.752-13.414-38.283-16.775-42.838c-3.36-4.555-8.381-6.614-7.899-8.219
				c0.481-1.604,5.631-2.675,6.535-1.981c0.904,0.694,6.39,7.776,10.013,12.891c3.623,5.115,9.161,12.776,9.94,12.119
				c0.778-0.658,8.55-7.434,7.966-11.471c-0.584-4.038-5.85-13.284-4.827-13.576c1.023-0.291,2.987-1.841,3.453-1.3
				c0.466,0.54,5.798,15.043,4.71,16.899c-1.087,1.856-8.602,13.674-8.422,15.606c0.179,1.932,3.186,16.264,4.679,16.513
				c1.492,0.249,5.635-1.117,6.76-2.197c1.125-1.081,8.148-20.452,9.624-20.396c1.475,0.056,2.895-0.469,2.641,1.31
				c-0.256,1.778-8.117,25.711-9.313,26.408c-1.194,0.698-8.979,2.797-10.084,4.46c-1.107,1.664-7.655,17.093-7.875,19.257
				c-0.22,2.164-28.043,36.805-60.354,52.912L146.033,120.788z"/>
			<path style="fill:#82746E;" d="M140.238,128.54c0,0,9.263-21.584,12.003-33.247c2.739-11.663,14.332-35.747,14.762-41.453
				c0.43-5.705,0.837-14.5,2.01-14.984c1.173-0.484,3.62,12.566,3.192,18.51c-0.428,5.943-6.921,19.297-8.068,23.345
				c-1.148,4.048-8.556,20.972-8.778,22.637c-0.224,1.665,4.927-1.937,5.859-3.132s8.863-10.995,9.737-20.268
				c0.875-9.273,0.048-10.455,1.402-9.99c1.354,0.465,2.428,18.991,1.733,20.659c-0.693,1.668-10.721,13.622-12.948,15.064
				c-2.227,1.442-7.393,3.143-8.083,5.287c-0.69,2.144-5.579,17.518-5.579,17.518L140.238,128.54z"/>
		</g>
	</g>
	<g>
		<g>
			<g>
				<path style="fill:#B7845F;" d="M151.758,134.526c0,0,31.971-20.229,39.881-23.988c7.91-3.759,11.321-4.564,10.62,1.108
					c-0.732,5.918-5.78,21.249-13.631,26.4c-4.362,2.863-25.277-0.298-33.147,5.877L151.758,134.526z"/>
				<path style="fill:#845638;" d="M198.793,112.199c-1.762-0.797-15.372,7.639-20.154,12.975
					c-4.781,5.337-7.377,9.929-5.783,10.521c1.594,0.593,9.785,1.422,13.742-0.243C192.226,133.086,201.227,113.301,198.793,112.199
					z"/>
			</g>
			<g>
				<path style="fill:#B7845F;" d="M104.465,134.526c0,0-31.971-20.229-39.881-23.988c-7.91-3.759-11.321-4.564-10.62,1.108
					c0.732,5.918,5.78,21.249,13.63,26.4c4.363,2.863,25.277-0.298,33.147,5.877L104.465,134.526z"/>
				<path style="fill:#845638;" d="M57.43,112.199c1.762-0.797,15.373,7.639,20.154,12.975c4.782,5.337,7.378,9.929,5.784,10.521
					c-1.594,0.593-9.785,1.422-13.743-0.243C63.998,133.086,54.997,113.301,57.43,112.199z"/>
			</g>
		</g>
		<g>
			<path style="fill:#B7845F;" d="M89.585,174.957c-1.398,6.125,8.25,57.164,20.556,60.839h18.598v-62.881L89.585,174.957z"/>
			<path style="fill:#B7845F;" d="M166.638,174.957c1.398,6.125-8.25,57.164-20.556,60.839h-18.597v-62.881L166.638,174.957z"/>
		</g>
		<path style="fill:#D7A078;" d="M172.089,157.876c-1.987-9.031-15.404-29.102-23.355-31.611c-7.95-2.509-11.678,3.011-20.622,3.011
			c-8.944,0-12.671-5.519-20.622-3.011c-7.951,2.509-21.368,22.58-23.355,31.611c-1.987,9.032,1.491,24.085,4.969,24.587
			c3.478,0.502,20.871,10.276,20.871,13.287c0,3.01,0.994,30.367-2.484,39.399c-3.478,9.032,16.647,21.074,20.622,21.074
			c3.976,0,24.101-12.042,20.622-21.074c-3.479-9.032-2.484-36.39-2.484-39.399c0-3.011,17.393-12.785,20.87-13.287
			C170.598,181.961,174.076,166.908,172.089,157.876z"/>
		<g>
			<path style="fill:#263138;" d="M128.112,238.798c-6.082,0-10.833,1.047-13.148,3.44c0,0,7.035,8.5,13.148,8.5
				c6.113,0,13.148-8.5,13.148-8.5C138.945,239.845,134.194,238.798,128.112,238.798z"/>
			<path style="opacity:0.8;fill:#3C454A;" d="M128.112,240.59c5.49,0,10.055,0.524,13.12,1.682
				c0.018-0.021,0.028-0.033,0.028-0.033c-2.315-2.394-7.066-3.44-13.148-3.44c-6.082,0-10.833,1.047-13.148,3.44
				c0,0,0.011,0.013,0.028,0.033C118.057,241.114,122.621,240.59,128.112,240.59z"/>
		</g>
		<g>
			<g>
				<path style="fill:#263138;" d="M111.893,183.677c0,0-12.929-0.055-20.712-7.989c0,0,4.914-7.611,13.316-3.311
					C110.138,175.263,111.893,183.677,111.893,183.677z"/>
				<g>
					<path style="fill:#9C5B2D;" d="M105.167,175.875c0.238,2.076-1.236,3.954-3.292,4.194c-2.056,0.239-3.916-1.249-4.153-3.324
						c-0.238-2.076,1.236-3.954,3.293-4.194C103.07,172.31,104.929,173.8,105.167,175.875z"/>
					
						<ellipse transform="matrix(0.9933 -0.1157 0.1157 0.9933 -19.6661 12.7978)" style="fill:#FFFFFF;" cx="100.437" cy="175.849" rx="1.41" ry="1.423"/>
				</g>
			</g>
			<g>
				<path style="fill:#263138;" d="M144.33,183.677c0,0,12.929-0.055,20.712-7.989c0,0-4.914-7.611-13.316-3.311
					C146.085,175.263,144.33,183.677,144.33,183.677z"/>
				<g>
					<path style="fill:#9C5B2D;" d="M158.502,175.875c0.237,2.076-1.236,3.954-3.293,4.194c-2.056,0.239-3.915-1.249-4.152-3.324
						c-0.238-2.076,1.236-3.954,3.292-4.194C156.404,172.31,158.264,173.8,158.502,175.875z"/>
					
						<ellipse transform="matrix(0.9933 -0.1157 0.1157 0.9933 -19.3107 18.9698)" style="fill:#FFFFFF;" cx="153.773" cy="175.849" rx="1.41" ry="1.423"/>
				</g>
			</g>
		</g>
		<path style="opacity:0.12;fill:#FFFFFF;" d="M128.112,129.275c-8.944,0-12.671-5.519-20.622-3.011
			c-2.188,0.69-4.792,2.717-7.456,5.473c-9.055-5.679-29.364-18.308-35.449-21.199c-7.91-3.759-11.321-4.564-10.62,1.108
			c0.732,5.918,5.78,21.249,13.63,26.4c3.262,2.141,15.772,0.915,25.169,2.739c-4.232,6.155-7.695,12.844-8.63,17.091
			c-1.988,9.032,1.491,24.085,4.969,24.587c0.219,0.032,0.495,0.088,0.817,0.165c1.846,14.75,8.936,44.715,17.807,51.831
			c-0.078,0.238-0.156,0.476-0.238,0.69c-3.478,9.032,16.647,21.074,20.622,21.074V129.275z"/>
	</g>
</g>
</svg>