<?xml version="1.0" encoding="utf-8"?>
<!-- Generator: Adobe Illustrator 24.3.0, SVG Export Plug-In . SVG Version: 6.00 Build 0)  -->
<svg version="1.0" id="katman_1" xmlns="http://www.w3.org/2000/svg" xmlns:xlink="http://www.w3.org/1999/xlink" x="0px" y="0px"
	 viewBox="0 0 841.89 595.28" style="enable-background:new 0 0 841.89 595.28;" xml:space="preserve">
<style type="text/css">
	.st0{fill: #fcfdfd;stroke: #fcfdfd;stroke-width:1.305;}
</style>
<path class="st0" d="M555.38,168.91c-1.81-1.09-2.4-3.45-1.32-5.27c1.08-1.82,3.42-2.42,5.23-1.33l44.62,26.82
	c6.34,3.19,9.7,10.39,8.65,17.34c-1.08,7.2-8.02,13.79-15.35,13.37l-29.98-1.22c-3.07-0.13-6.1-0.6-8.94-1.5
	c-2.12,34.9-6.66,55.8-27.28,85.27c-0.71,16.85-7.26,30.63-15.84,41.03c-11.04,13.39-25.67,21.2-35.6,22.74l-8.58,35.42
	c-0.07,4.89-0.58,9.66-1.39,14.18c-0.96,5.37-2.31,10.38-3.82,14.86c-4.77,17.04-4.84,27.84-4.97,46.44
	c-0.01,2.13-0.03,4.37-0.05,6.67c0.23,1.15,2.23,3.33,4.18,5.46c3.73,4.05,7.34,7.99,5.29,12.59c-0.76,1.71-2.25,2.87-4.22,3.57
	c-2.59,0.92-6.47,1.09-10.31,0.7c-3.72-0.37-7.57-1.26-10.25-2.48c-5.78-2.61-5.69-6.13-5.02-11.86c0.25-2.16,0.52-4.44,0.11-5.07
	c-0.84-1.27-1.76-2.44-2.62-3.53c-4.2-5.31-7.34-9.27-3.37-20.2c2.97-8.19,4.49-14.27,5.21-19.91c0.72-5.67,0.66-11.05,0.47-17.71
	c-0.14-4.76-0.21-8.73,0.04-13.04c0.25-4.29,0.8-8.91,1.9-14.96l-0.03-36.33c0-4.24-0.37-7.94-1.34-11.2
	c-0.91-3.05-2.37-5.72-4.59-8.1c-1.45-1.55-1.37-3.98,0.16-5.44c1.53-1.46,3.95-1.38,5.39,0.17c3.09,3.31,5.11,6.99,6.35,11.18
	c1.18,3.98,1.64,8.4,1.64,13.4l0.03,36.69c0,0.24-0.02,0.47-0.06,0.69c-1.07,5.84-1.6,10.26-1.84,14.32
	c-0.24,4.12-0.17,7.89-0.04,12.4c0.21,7,0.26,12.68-0.53,18.89c-0.8,6.23-2.43,12.84-5.6,21.57c-2.49,6.88-0.5,9.4,2.18,12.79
	c0.95,1.21,1.97,2.49,3.01,4.07c1.96,2.98,1.53,6.7,1.12,10.21c-0.07,0.52-0.16,1.05-0.18,1.59c-0.05,1.04-0.29,1.95,0.72,2.36
	c1.95,0.88,4.92,1.55,7.9,1.85c2.51,0.25,4.9,0.23,6.47-0.14c-0.64-0.7-2.09-2.25-3.57-3.86c-2.39-2.6-6.3-6.74-6.22-10.54
	c0.02-2.43,0.04-4.68,0.05-6.83c0.13-19.35,0.2-30.57,5.27-48.6c1.47-4.81,2.75-9.03,3.64-14.03c0.76-4.27,1.24-8.76,1.28-13.35
	c0-0.3,0.04-0.59,0.11-0.87c3.03-12.53,5.84-27.28,9.57-39.36c2.77-8.96,3.84-12.43,12.75-20.63c1.56-1.43,3.98-1.32,5.4,0.26
	c1.42,1.57,1.31,4.01-0.25,5.44c-5.34,4.92-7.29,7.8-8.84,11.88c8.06-2.37,18.67-8.92,27.2-19.26c7.78-9.44,13.69-22,14.11-37.37
	c-0.01-0.78,0.22-1.58,0.71-2.26c23.55-33.28,25.02-57.32,26.5-81.75l0.23-3.67c-4.99-3.72-7.84-8.53-9-14.67
	c-0.39-2.09,0.98-4.1,3.05-4.49c2.07-0.39,4.07,0.99,4.45,3.07c0.82,4.35,2.87,7.48,5.62,9.59c3.35,2.57,7.82,3.77,12.53,3.96
	l29.78,1.21c3.99-0.48,7.06-2.67,7.69-6.82c0.64-4.27-1.33-7.38-4.91-9.54L555.38,168.91z M500.31,370.39
	c-1.45-1.55-1.37-3.98,0.16-5.44c1.54-1.46,3.95-1.38,5.4,0.17l19.37,20.65c5.25,3.12,8.03,7.12,9.17,11.48
	c1.35,5.18,0.21,10.61-1.91,15.49c-0.73,5.53-1.14,10.98-1.31,16.24c-0.19,6.16-0.04,12.13,0.32,17.73
	c0.14,2.18,0.18,4.11,0.08,5.89c-0.12,1.94-0.41,3.68-0.94,5.33c-0.91,2.81-4.92,12.98-8.4,20.51c-2.63,5.7-5.43,10.26-7.68,10.74
	c-1.81,0.39-3.61-0.13-5.33-1.32c-2.28-1.58-4.71-4.63-6.67-7.98c-1.9-3.25-3.46-6.91-4.08-9.82c-0.49-2.33-0.53-4.85,0.93-6.84
	c1.32-1.78,3.42-2.98,5.62-4.23c1.15-0.66,2.35-1.34,3.15-1.93c-3.72-7.34-2.55-10.97-0.71-16.65c0.66-2.05,1.43-4.42,1.98-7.41
	c0.76-4.16,0.97-8.57,0.84-12.83c-0.14-4.59-0.7-9.01-1.41-12.73l-26.4-18.05c-1.74-1.19-2.2-3.58-1.02-5.33
	c1.18-1.76,3.55-2.21,5.29-1.02l27.44,18.77c0.92,0.52,1.62,1.42,1.86,2.54c0.93,4.32,1.68,9.79,1.86,15.59
	c0.15,4.76-0.1,9.73-0.96,14.46c-0.65,3.56-1.49,6.16-2.22,8.4c-1.34,4.15-2.16,6.68,1.15,12.46c0.66,0.99,0.86,2.28,0.42,3.48
	c-1.23,3.35-4.47,5.2-7.54,6.94c-0.94,0.54-1.85,1.06-2.48,1.48c-0.4,0.22-0.49,0.55-0.33,1.3c0.44,2.11,1.66,4.91,3.18,7.5
	c1.35,2.31,2.35,3.48,3.67,4.75c3.81-7.69,7.77-16.51,10.56-25.17c0.32-1,0.51-2.12,0.58-3.4c0.09-1.43,0.05-3.07-0.08-4.96
	c-0.37-5.75-0.52-11.95-0.32-18.46c0.18-5.66,0.62-11.5,1.42-17.4c0.04-0.42,0.14-0.85,0.32-1.26c1.64-3.62,2.59-7.52,1.71-10.9
	c-0.66-2.55-2.48-4.97-6.04-6.99c-0.33-0.19-0.64-0.43-0.91-0.72L500.31,370.39z M344.51,329.9c13.29,5.54,26.61,9.97,40.17,13.53
	c14.7,3.85,29.73,6.69,45.34,8.81c2.09,0.28,3.55,2.22,3.27,4.33c-0.28,2.11-2.2,3.58-4.29,3.3c-15.88-2.15-31.21-5.05-46.24-8.99
	c-13.78-3.61-27.29-8.1-40.73-13.68c-7.44,18.17-21.62,27.41-36.82,37.32c-11.44,7.46-23.51,15.33-33.25,28.01
	c-1.44,2.05-2.5,3.94-3.59,6.21c-1.16,2.44-2.18,4.99-2.72,6.92c-2.58,10.23-4.3,19.4-5.48,29.91c-1.41,12.58-2.05,25.75-2.18,38.15
	c0.23,1.15,2.23,3.33,4.18,5.46c3.73,4.05,7.34,7.99,5.29,12.59c-0.84,1.89-2.36,2.85-4.21,3.57c-2.6,0.92-6.48,1.09-10.32,0.71
	c-3.72-0.37-7.57-1.26-10.26-2.48c-5.78-2.62-5.69-6.15-5.02-11.86c0.25-2.16,0.52-4.44,0.11-5.07c-0.84-1.27-1.76-2.44-2.62-3.53
	c-4.2-5.31-7.33-9.27-3.37-20.2c5.67-15.63,5.48-33.32,5.33-46.54c-0.09-8.34-0.16-15.02,1.26-19.12
	c3.04-8.77,10.69-14.53,19.04-20.83c5.65-4.26,12.49-9.37,16.79-15.01c3.08-3.75,4.7-8.44,5.1-13.69c0.45-5.97-0.66-12.64-3-19.49
	c-1.62-4.77-2.92-9.26-3.91-13.51c-1.11,0.88-2.28,1.54-3.47,2.01c-1.95,0.75-4.01,1.01-6.07,0.63c-2.03-0.37-3.91-1.32-5.45-2.83
	c-2.48-2.42-4.04-6.24-3.78-11.29c0.31-6.17,3.03-12.55,6.85-18.41c4.61-7.07,10.88-13.47,16.32-17.71
	c8.59-6.7,19.85-12.66,34.14-16.6c12.14-3.34,26.47-5.22,43.21-4.85c10.12,0.23,20.19,0.98,30.26,1.91
	c15.77,1.46,30.31-1.25,43.84-3.77c17.22-3.21,32.89-6.13,48.33-0.41c16.46-9.14,22.27-26.62,27.78-43.19
	c3.93-11.82,7.72-23.22,15.08-31.71c-1.05-3.23-1.52-6.52-1.36-9.82c0.04-0.73,0.1-1.47,0.2-2.2c-17.6-2.43-34.57-8.67-48.61-19.88
	c-14.55-11.61-23.74-26.98-26.5-43.47c-0.35-2.1,1.06-4.08,3.14-4.43c2.08-0.35,4.05,1.07,4.39,3.16
	c2.45,14.63,10.67,28.31,23.69,38.7c1.23,0.98,2.5,1.93,3.8,2.85c0.4-6.76,0.42-13.09-0.1-19.06c-0.64-7.32-2.11-14.08-4.74-20.37
	c-0.82-1.96,0.09-4.21,2.03-5.03c1.94-0.82,4.18,0.09,4.99,2.05c2.98,7.13,4.63,14.64,5.34,22.69c0.66,7.57,0.5,15.63-0.17,24.3
	c5.59,3.08,11.77,5.66,18.51,7.62c3.6-8.02,5.96-16.97,6.95-25.68c1.1-9.66,0.51-18.93-1.94-26.21c-0.68-2.01,0.39-4.2,2.39-4.88
	c2-0.68,4.17,0.4,4.84,2.41c2.82,8.36,3.52,18.82,2.3,29.55c-1.02,9-3.4,18.27-7.02,26.7c2.88,0.61,5.84,1.11,8.89,1.5
	c1.59-3.47,3.99-6.81,7.27-9.95c1.19-1.14,2.48-2.24,3.86-3.29c1.62-1.23,3.89-0.97,5.2,0.56c3.28,3.62,5.73,8.07,7.51,12.84
	c5.79-1.92,10.74-5.85,13.79-11.19c2.78-4.86,3.96-10.87,2.73-17.45c-0.35-1.9-0.91-3.86-1.7-5.87c-0.77-1.98,0.2-4.21,2.17-4.99
	c1.97-0.77,4.18,0.2,4.95,2.19c0.95,2.44,1.64,4.87,2.09,7.26c1.58,8.49,0.03,16.31-3.63,22.7c-4.01,7.02-10.55,12.26-18.18,14.73
	c1.1,4.7,1.69,9.47,1.92,13.84c0.11,2.12-1.51,3.93-3.62,4.04c-2.1,0.11-3.9-1.52-4.01-3.65c-0.29-5.54-1.22-11.76-3.16-17.49
	c-1.1-3.24-2.51-6.31-4.32-8.97c-4.19,3.96-7.34,8.8-7.64,14.72c-0.25,4.98,1.59,10.09,5.16,14.87c0.83,1.11,1.73,2.18,2.7,3.21
	c1.45,1.54,1.39,3.98-0.13,5.44c-1.53,1.46-3.94,1.4-5.4-0.14c-1.2-1.28-2.29-2.57-3.26-3.87c-0.59-0.78-1.13-1.58-1.65-2.38
	c-5.1,7.14-8.26,16.66-11.53,26.48c-6.15,18.52-12.66,38.08-33.08,48.41c-1.02,0.51-2.16,0.54-3.14,0.14
	c-14.5-5.97-30.91-2.58-45.75,0.19c-14.02,2.61-29.08,5.42-45.91,3.86c-9.87-0.92-19.82-1.66-29.73-1.88
	c-15.98-0.36-29.59,1.42-41.06,4.57c-13.22,3.64-23.59,9.12-31.47,15.27c-4.88,3.81-10.5,9.54-14.61,15.84
	c-3.14,4.81-5.36,9.89-5.6,14.56c-0.13,2.63,0.48,4.43,1.48,5.41c0.43,0.42,0.94,0.68,1.48,0.78c0.61,0.11,1.28,0.03,1.98-0.24
	c2.08-0.81,3.54-2.9,4.41-4.87c-0.35-2.84-0.54-5.57-0.57-8.19c-0.02-2.12,1.66-3.86,3.77-3.89c2.11-0.02,3.83,1.67,3.86,3.8
	c0.05,4.02,0.54,8.46,1.51,13.35c0.98,4.92,2.43,10.23,4.38,15.97c2.65,7.8,3.91,15.52,3.38,22.57c-0.51,6.81-2.68,12.98-6.83,18.03
	c-5.87,6.77-11.03,10.94-18.11,16.28c-7.39,5.57-14.15,10.67-16.41,17.19c-0.99,2.85-0.92,8.94-0.84,16.53
	c0.15,13.82,0.35,32.32-5.78,49.22c-2.5,6.88-0.5,9.4,2.17,12.78c0.95,1.21,1.97,2.49,3.01,4.08c1.97,2.99,1.53,6.71,1.12,10.22
	c-0.1,0.88-0.21,1.75-0.26,2.45c0.07,0.63,0.03,1.14,0.8,1.48c1.95,0.88,4.93,1.55,7.9,1.85c2.51,0.25,4.9,0.23,6.47-0.15
	c-0.65-0.7-2.09-2.25-3.57-3.85c-2.39-2.6-6.31-6.75-6.22-10.54c0.13-12.79,0.78-26.32,2.21-39.12c1.12-9.96,2.82-21.58,5.73-31.15
	c0.66-2.33,1.85-5.33,3.2-8.15c1.02-2.14,2.89-5.86,4.45-7.6c10.53-13.72,23.16-21.95,35.14-29.76
	c21.17-13.8,40.17-26.18,38.67-67.48c-0.07-2.12,1.57-3.9,3.68-3.98c2.1-0.08,3.87,1.58,3.94,3.71
	C347.82,312.14,346.74,321.81,344.51,329.9z M326.04,369.65c0.3-2.11,2.25-3.56,4.33-3.25c2.09,0.31,3.53,2.26,3.23,4.37
	c-1.3,8.82-4.49,16.99-7.47,24.62c-2,5.13-3.91,10-4.97,14.49c-0.44,1.85-0.31,4.12,0.26,6.35c0.58,2.31,1.6,4.49,2.92,6.06
	c4.63,5.52,9.77,12.01,14.05,18.6c4.43,6.82,7.97,13.83,9.19,20.19c2.2,11.4,5.11,12.53,7.82,13.58c2.49,0.97,4.89,1.89,7.08,5.24
	c1.96,2.98,1.45,7.51,0.97,11.7c-0.14,1.3-0.29,2.44-0.34,3.28c-0.04,0.62,0,1.35,0.73,1.67c1.76,0.79,4.41,1.37,7.1,1.61
	c2,0.18,3.9,0.17,5.33-0.08c-0.95-2.74-2.34-6.12-4.06-9.84c-2.28-4.96-5.11-10.46-8.18-15.77l-31.53-54.58
	c-0.81-1.4-0.63-3.1,0.3-4.3c6.65-8.78,13.84-18.61,19.96-28.01c6.09-9.35,12.41-21.31,15.03-28.6c0.72-2,2.91-3.03,4.89-2.31
	c1.98,0.72,3,2.93,2.29,4.93c-2.82,7.87-9.44,20.38-15.83,30.2c-5.86,9-12.5,18.16-18.74,26.45l30.25,52.36
	c3.2,5.53,6.14,11.25,8.51,16.41c2.44,5.31,4.32,10.11,5.29,13.62c0.28,0.87,0.25,1.84-0.15,2.74c-0.79,1.76-2.33,2.96-4.36,3.68
	c-2.52,0.89-6.11,1.1-9.65,0.79c-3.44-0.3-7-1.11-9.55-2.27c-2.37-1.07-4.12-2.58-4.8-4.52c-0.84-2.32-0.34-5.87-0.07-8.3
	c0.32-2.87,0.67-5.97,0.25-6.61c-0.87-1.32-2.13-1.81-3.44-2.31c-4.63-1.79-9.59-3.72-12.6-19.3c-1.01-5.24-4.14-11.33-8.09-17.42
	c-4.1-6.32-9.04-12.54-13.48-17.84c-2.08-2.48-3.65-5.76-4.5-9.13c-0.85-3.37-1.01-6.94-0.29-10.03c1.17-4.94,3.18-10.09,5.3-15.51
	C321.85,385.35,324.87,377.6,326.04,369.65z"/>
</svg>
