<?xml version="1.0" standalone="no"?>
<!DOCTYPE svg PUBLIC "-//W3C//DTD SVG 20010904//EN"
 "http://www.w3.org/TR/2001/REC-SVG-20010904/DTD/svg10.dtd">
<svg version="1.0" xmlns="http://www.w3.org/2000/svg"
 width="360.000000pt" height="360.000000pt" viewBox="0 0 360.000000 360.000000"
 preserveAspectRatio="xMidYMid meet">

<g transform="translate(0.000000,360.000000) scale(0.100000,-0.100000)"
fill="#000000" stroke="none">
<path d="M541 3034 c-1 -23 -4 -62 -7 -86 -6 -40 -9 -45 -27 -40 -17 4 -19 2
-13 -21 5 -22 3 -27 -13 -27 -19 0 -18 -2 4 -25 37 -36 30 -54 -6 -19 l-32 29
7 -27 c5 -24 3 -28 -16 -28 -19 0 -20 -2 -6 -12 9 -7 19 -30 23 -52 l6 -38
-30 22 c-17 12 -31 18 -31 15 0 -4 16 -34 35 -66 19 -33 35 -62 35 -65 0 -2
-9 -4 -19 -4 -11 0 -23 -4 -26 -10 -3 -5 -17 -10 -31 -10 -13 0 -24 -4 -24
-10 0 -5 9 -10 20 -10 11 0 20 -4 20 -10 0 -5 8 -10 19 -10 10 0 24 -7 31 -15
15 -18 8 -19 -60 -4 -35 7 -50 15 -46 24 3 10 -6 12 -37 9 -36 -4 -39 -3 -18
6 31 14 24 19 -17 13 -24 -4 -36 -13 -43 -30 -10 -26 -5 -43 12 -43 6 0 7 5 4
10 -9 14 10 12 52 -5 20 -9 45 -13 56 -9 12 4 17 2 13 -4 -7 -12 17 -34 36
-31 28 3 49 -1 43 -11 -3 -5 -18 -9 -33 -9 -15 1 -46 -2 -69 -6 -28 -5 -56 -2
-89 9 -58 20 -64 20 -64 1 0 -17 25 -32 65 -39 16 -3 43 -20 62 -38 31 -30 46
-23 23 12 -6 9 -5 17 3 22 15 10 33 10 23 1 -4 -4 8 -14 25 -23 42 -20 42 -34
-1 -38 l-34 -4 23 -17 c23 -18 22 -18 -45 -16 -38 2 -75 3 -81 4 -7 0 -14 13
-14 29 -2 24 -2 24 -6 4 -6 -33 -37 -24 -43 13 l-6 30 -7 -34 c-4 -18 -7 -58
-7 -87 0 -30 -5 -63 -11 -73 -9 -14 -9 -26 0 -51 13 -38 8 -48 -14 -30 -18 15
-19 1 -1 -23 9 -11 12 -33 9 -61 -3 -26 -1 -46 6 -50 6 -4 11 -12 11 -17 0 -6
-5 -7 -10 -4 -5 3 -10 -3 -10 -14 0 -12 5 -21 11 -21 8 0 8 -4 0 -14 -9 -11
-9 -34 -1 -98 78 -587 467 -1090 1017 -1317 140 -58 415 -123 435 -103 5 5 12
51 15 101 7 112 -17 263 -53 332 -29 56 -33 150 -8 207 9 20 26 86 39 146 25
117 22 146 -17 146 -22 0 -98 69 -98 90 0 15 51 4 103 -22 22 -11 42 -17 45
-13 9 9 -12 20 -113 61 -49 19 -103 48 -120 64 -16 15 -36 25 -43 23 -7 -3
-24 -2 -37 1 -18 5 -25 13 -25 31 0 28 0 28 34 15 20 -7 24 -6 19 6 -3 8 -16
17 -29 20 -26 7 -32 29 -11 38 10 5 10 7 0 12 -7 3 -13 18 -13 32 0 32 -9 46
-33 55 -12 5 -16 3 -11 -5 5 -8 -4 -9 -32 -5 -21 4 -45 7 -53 7 -8 0 -4 7 10
19 l23 18 -32 -5 c-33 -4 -62 11 -62 34 0 9 8 10 30 4 23 -6 30 -5 30 5 0 7 6
15 14 18 7 3 14 17 13 31 l0 25 -25 -19 c-13 -11 -34 -20 -45 -20 -19 0 -17 4
12 34 l33 34 -28 -3 c-16 -1 -38 -6 -49 -10 -18 -7 -19 -6 -5 8 8 9 33 23 55
31 34 12 36 15 14 15 -39 1 -41 10 -8 42 27 27 28 29 9 29 -16 0 -20 4 -15 19
5 15 2 18 -14 14 -27 -7 -48 32 -25 45 13 7 14 13 6 28 -9 16 -6 23 16 41 32
26 10 32 -26 7 l-22 -15 -1 93 c-1 91 -2 92 -11 41 -6 -36 -14 -53 -24 -53
-11 0 -13 -6 -9 -20 4 -12 2 -20 -5 -20 -6 0 -3 -12 7 -27 l17 -28 -28 25
c-28 25 -28 25 -22 3 5 -14 3 -23 -3 -23 -7 0 -7 -8 -1 -26 14 -35 13 -36 -11
-29 -20 7 -20 5 6 -38 l26 -46 -35 -7 c-34 -6 -51 -24 -23 -24 7 0 24 -8 37
-17 l25 -18 -33 -5 c-41 -6 -45 -23 -7 -30 l30 -5 -33 -21 -33 -20 28 -14 c20
-9 24 -14 13 -17 -45 -14 -45 -14 -30 -23 14 -9 11 -10 -65 -25 -34 -7 -95 16
-95 37 0 17 18 19 75 8 6 -2 21 -2 35 -1 23 2 22 3 -13 20 -20 9 -34 20 -31
24 4 3 -8 2 -27 -3 -19 -6 -35 -10 -36 -10 -2 0 -3 11 -3 25 0 21 5 25 33 26
41 2 47 3 75 12 40 15 23 23 -43 21 -64 -3 -65 -2 -65 23 0 20 4 24 20 20 11
-3 23 -1 26 4 3 5 17 9 32 10 15 0 21 3 14 6 -10 4 -9 10 5 25 17 20 17 20
-20 -1 -52 -29 -77 -28 -77 5 0 21 4 25 23 22 23 -3 52 15 68 44 8 14 6 16 -8
11 -10 -4 -22 -12 -26 -20 -4 -7 -19 -13 -32 -13 -18 0 -25 5 -25 20 0 11 7
20 15 20 23 0 66 31 59 42 -3 5 -16 3 -30 -6 -13 -9 -28 -16 -34 -16 -15 0
-12 27 4 33 8 3 20 15 26 27 10 18 9 21 -7 18 -14 -2 -19 5 -21 30 -2 19 0 41
4 50 13 30 16 64 4 57 -6 -4 -10 12 -10 44 0 67 -18 66 -22 -1 -2 -39 -7 -53
-18 -53 -30 0 -80 -30 -80 -48 0 -15 6 -17 34 -12 20 4 36 2 41 -4 3 -6 10 -9
14 -7 4 3 8 -13 8 -34 1 -31 -2 -37 -16 -33 -14 6 -14 4 2 -14 19 -22 23 -53
6 -53 -6 0 -24 14 -41 30 -16 17 -37 30 -47 30 -30 0 -31 11 -4 34 l26 22 -37
-4 c-43 -5 -86 19 -86 48 0 16 4 17 32 9 43 -12 61 -11 53 1 -4 6 5 20 20 32
21 16 24 23 13 29 -9 6 -5 9 13 9 25 0 38 14 45 48 1 8 -3 11 -12 8 -8 -3 -14
-1 -14 4 0 6 5 10 10 10 6 0 10 5 10 12 0 9 -3 9 -12 0 -7 -7 -20 -12 -30 -12
-10 0 -18 -3 -17 -7 5 -38 -44 -83 -91 -83 -30 0 -25 14 23 57 l44 38 -35 2
c-19 1 -45 -5 -59 -14 -32 -21 -42 -8 -12 17 17 15 33 19 56 15 17 -3 34 -1
38 5 3 5 0 10 -7 10 -7 1 -1 8 15 16 37 20 34 23 -10 14 -63 -15 -68 4 -16 55
l45 45 -31 -6 c-32 -7 -38 0 -22 26 12 18 3 34 -12 21 -8 -6 -21 -5 -37 4 -14
8 -21 14 -16 15 5 0 3 6 -3 14 -10 12 -7 18 14 32 23 15 24 19 11 26 -26 14
-19 39 22 74 42 38 30 44 -28 14 -22 -11 -41 -20 -44 -20 -2 0 -2 42 1 93 2
50 0 110 -5 132 l-10 40 -1 -41z m216 -630 c-3 -3 -12 -4 -19 -1 -8 3 -5 6 6
6 11 1 17 -2 13 -5z m-527 -151 c0 -7 -7 -13 -15 -13 -8 0 -15 6 -15 13 0 8 7
14 15 14 8 0 15 -6 15 -14z m154 -2 c17 -18 16 -20 -4 -26 -15 -5 -19 -12 -15
-26 5 -15 1 -19 -19 -19 -14 0 -26 4 -26 8 0 5 -16 7 -35 6 -34 -3 -35 -2 -35
33 0 31 2 35 23 30 12 -2 33 -1 47 3 39 12 46 11 64 -9z m372 -113 c26 -20 43
-41 43 -53 0 -19 0 -19 -14 -1 -8 11 -20 16 -30 12 -9 -3 -13 -2 -10 4 3 5 -6
17 -21 26 -25 17 -27 17 -43 -5 l-17 -23 -34 29 -34 28 49 6 c28 3 54 7 59 7
5 1 28 -13 52 -30z m-401 -22 l24 -23 -29 -28 c-27 -25 -30 -27 -30 -9 0 13
-3 15 -8 6 -10 -15 -38 -7 -46 13 -6 16 19 39 34 30 13 -8 13 1 -1 27 -9 18
-8 19 10 13 12 -4 33 -17 46 -29z m421 -76 c18 0 24 -5 24 -21 0 -17 -4 -20
-22 -15 -13 3 -29 6 -35 6 -7 0 -13 8 -13 18 0 22 13 38 18 23 2 -6 15 -11 28
-11z m-41 -50 c3 -6 -1 -7 -9 -4 -18 7 -21 14 -7 14 6 0 13 -4 16 -10z m65
-40 c0 -18 -3 -19 -20 -10 -11 6 -20 15 -20 20 0 6 9 10 20 10 13 0 20 -7 20
-20z m-490 -25 c-7 -8 -18 -15 -24 -15 -6 0 -2 7 8 15 25 19 32 19 16 0z m488
-52 c-2 -9 -13 -18 -25 -19 -26 -4 -28 1 -10 21 17 20 39 19 35 -2z m-4 -62
c9 -14 -67 -41 -81 -29 -21 17 -15 27 20 31 17 2 37 5 44 5 6 1 14 -2 17 -7z
m-18 -99 c-6 -5 -35 27 -36 40 0 3 8 8 18 10 12 2 18 -4 20 -20 2 -13 1 -26
-2 -30z m106 27 c22 -25 31 -24 17 2 -11 21 -10 22 25 16 21 -3 36 -2 36 4 0
6 5 7 10 4 15 -9 12 -25 -5 -25 -9 0 -14 -8 -12 -22 2 -22 -1 -23 -53 -20 -81
5 -90 9 -90 43 0 27 2 29 28 23 15 -3 34 -15 44 -25z m376 -56 c17 -3 32 -11
32 -18 0 -16 -27 -27 -35 -14 -4 5 -11 7 -16 4 -5 -4 -16 1 -25 9 -20 20 -30
20 -38 1 -4 -13 -10 -14 -26 -5 -11 6 -20 15 -20 20 0 11 48 19 75 13 11 -3
35 -7 53 -10z m-328 -16 c35 -16 34 -15 22 -30 -12 -15 -95 -11 -86 5 3 5 -6
8 -22 6 -20 -2 -29 2 -32 14 -3 13 5 16 45 16 26 0 59 -5 73 -11z m341 -47
c10 0 19 -6 19 -14 0 -14 -29 -26 -67 -26 -21 0 -22 2 -11 25 7 16 17 24 26
20 7 -3 22 -5 33 -5z m-413 -22 c9 -9 12 -9 12 0 0 7 9 12 20 12 26 0 26 -16
-1 -30 -20 -11 -20 -12 -2 -27 17 -14 17 -14 0 -9 -10 3 -23 6 -28 6 -6 0 -7
5 -4 10 4 6 -4 19 -17 30 -17 14 -19 19 -7 20 8 0 20 -5 27 -12z m432 -52 c0
-23 -16 -36 -45 -36 -9 0 -11 8 -7 23 10 41 52 52 52 13z m0 -76 c0 -16 -6
-20 -22 -18 -54 8 -60 38 -7 38 22 0 29 -4 29 -20z m41 7 c-6 -8 -8 -17 -4
-20 3 -4 1 -7 -5 -7 -7 0 -12 9 -12 20 0 12 7 20 16 20 13 0 14 -3 5 -13z
m-96 -57 c-3 -5 -2 -10 4 -10 5 0 13 5 16 10 14 22 35 10 35 -20 0 -28 -2 -30
-27 -24 -42 10 -72 54 -37 54 8 0 12 -4 9 -10z m107 4 c10 -9 -3 -42 -18 -48
-10 -4 -14 3 -14 24 0 27 17 40 32 24z m-52 -90 c0 -14 -3 -14 -15 -4 -8 7
-15 14 -15 16 0 2 7 4 15 4 8 0 15 -7 15 -16z m43 2 c5 -13 -10 -36 -24 -36
-3 0 -4 11 -1 25 5 27 17 33 25 11z"/>
<path d="M3195 2901 c12 -24 13 -32 3 -30 -13 2 -31 -3 -73 -21 -18 -8 -18 -9
-2 -9 10 -1 23 -6 30 -11 7 -6 23 -19 37 -30 l25 -19 -33 -1 c-18 0 -42 -5
-53 -10 -16 -9 -17 -13 -6 -24 8 -8 25 -12 39 -9 44 8 40 -14 -10 -46 -26 -17
-40 -31 -31 -31 9 0 27 -9 40 -19 l24 -19 -39 -7 -39 -8 26 -14 c30 -15 36
-33 12 -33 -12 0 -13 -4 -5 -19 14 -27 13 -28 -15 -35 -25 -6 -25 -7 -10 -36
19 -37 16 -45 -13 -41 -21 2 -22 0 -13 -17 6 -11 16 -22 23 -24 16 -6 -56 -94
-91 -113 l-26 -13 28 -13 c15 -7 27 -15 27 -18 0 -9 -43 -6 -59 3 -7 5 -18 3
-24 -3 -6 -6 -19 -11 -29 -11 -14 0 -18 8 -18 36 0 34 2 36 25 30 14 -4 25 -2
25 4 0 5 15 10 33 10 17 0 39 5 47 11 12 8 8 9 -15 6 l-30 -5 28 20 c42 31 32
41 -13 13 -22 -14 -54 -28 -70 -32 -29 -5 -30 -4 -30 32 l0 38 36 -6 c20 -3
34 -3 30 0 -3 3 8 15 25 25 17 11 29 22 25 25 -3 3 -1 12 5 20 9 9 8 13 0 13
-6 0 -11 -5 -11 -11 0 -6 -7 -9 -15 -5 -9 3 -15 0 -15 -8 0 -15 -57 -39 -71
-30 -5 3 -9 31 -9 63 0 51 3 59 24 70 13 7 29 24 35 37 12 28 9 30 -13 8 -9
-8 -16 -11 -16 -5 0 18 -18 12 -23 -6 -3 -10 -5 9 -6 41 -1 42 4 65 15 78 19
20 27 75 13 84 -5 3 -9 -4 -9 -15 0 -12 -3 -21 -7 -21 -5 0 -7 34 -5 75 2 49
0 75 -7 75 -7 0 -11 -41 -11 -122 l0 -121 -27 24 -28 24 28 -31 c19 -21 27
-41 27 -67 0 -35 -1 -37 -21 -27 -31 17 -33 7 -4 -20 24 -23 35 -70 16 -70 -5
0 -30 16 -55 35 -25 19 -46 31 -46 25 0 -5 25 -28 55 -51 l55 -41 -1 -97 c0
-98 -9 -145 -23 -123 -4 7 -14 12 -23 12 -12 0 -13 -3 -3 -15 10 -12 5 -13
-39 -8 -28 3 -51 3 -51 -1 0 -18 44 -47 68 -45 52 4 62 0 62 -26 0 -21 -4 -24
-30 -20 -16 2 -34 6 -39 9 -5 4 -12 2 -16 -3 -3 -6 -12 -8 -20 -4 -8 3 -23 2
-32 -1 -15 -6 -15 -8 -3 -16 8 -6 25 -10 38 -10 12 0 22 -4 22 -10 0 -5 8 -9
18 -8 44 3 62 -3 62 -21 0 -19 -9 -22 -95 -37 -16 -3 -40 -2 -53 3 l-23 9 20
26 c20 25 20 26 2 21 -16 -4 -18 0 -14 24 3 19 2 24 -5 15 -7 -11 -12 -10 -26
3 -20 20 -20 31 -1 39 13 5 13 9 3 26 -11 17 -10 22 10 35 33 24 27 38 -8 20
l-30 -16 -1 88 c-1 82 -2 85 -10 38 -4 -27 -13 -51 -19 -53 -5 -2 -10 -10 -10
-18 0 -8 -5 -14 -12 -14 -6 0 -4 -7 5 -18 25 -27 21 -38 -5 -16 -19 17 -21 17
-15 2 4 -13 1 -18 -10 -18 -11 0 -13 -4 -6 -12 6 -7 13 -23 16 -35 4 -20 3
-21 -14 -12 -18 9 -17 5 6 -42 21 -40 23 -50 11 -46 -9 4 -16 2 -16 -3 0 -6
-10 -10 -22 -10 -20 0 -19 -3 11 -22 l34 -22 -32 -8 c-36 -10 -33 -28 5 -28
33 0 30 -12 -8 -34 -30 -18 -30 -20 -11 -27 34 -12 37 -29 6 -29 -27 -1 -28
-1 -8 -16 13 -11 16 -18 8 -21 -7 -2 -9 -11 -6 -19 3 -7 -2 -17 -11 -20 -12
-5 -13 -11 -6 -24 13 -25 13 -30 -5 -30 -18 0 -19 -12 -3 -28 17 -17 -47 -82
-82 -82 -14 0 -31 -5 -38 -12 -6 -6 -14 -9 -18 -5 -7 7 55 47 74 47 6 0 12 4
12 9 0 4 -11 6 -25 3 -32 -6 -31 2 0 36 20 21 22 28 10 30 -8 2 -15 12 -15 23
0 11 -4 18 -9 14 -5 -3 -17 2 -26 11 -14 15 -14 18 -1 33 10 11 12 21 6 31 -7
11 -1 23 18 44 l27 30 -37 -22 -38 -21 -2 97 c-1 66 -3 78 -5 40 -3 -40 -8
-58 -17 -58 -16 0 -28 -48 -15 -56 5 -3 9 -12 9 -21 0 -11 -5 -9 -21 8 l-20
24 6 -22 c4 -13 2 -23 -4 -23 -7 0 -7 -8 0 -26 12 -33 5 -42 -17 -23 -12 10
-9 -2 9 -38 l26 -51 -25 -6 c-29 -8 -44 -1 -44 20 0 12 -5 11 -26 -5 -49 -39
-73 -22 -29 19 22 21 23 25 10 33 -11 6 -24 3 -41 -7 -14 -10 -24 -12 -24 -6
0 6 24 22 53 36 29 14 40 22 25 19 -37 -7 -41 6 -12 38 28 31 30 39 8 30 -14
-5 -16 -1 -12 20 4 21 2 25 -7 17 -9 -8 -17 -6 -29 5 -20 20 -20 34 -1 41 11
5 12 10 3 24 -10 15 -7 22 18 45 29 26 29 26 4 19 -14 -3 -29 -10 -34 -15 -20
-18 -23 -7 -19 59 3 37 0 78 -5 92 -9 21 -11 17 -11 -32 -1 -45 -4 -58 -16
-58 -8 0 -15 -7 -15 -15 0 -8 -5 -15 -12 -15 -6 0 -4 -7 5 -18 25 -27 21 -38
-5 -16 -19 17 -21 17 -15 2 4 -13 1 -18 -10 -18 -11 0 -13 -4 -6 -12 13 -17
23 -58 14 -58 -4 0 -12 5 -19 12 -20 20 -14 -3 14 -50 20 -34 23 -44 11 -39
-9 3 -19 2 -22 -3 -4 -6 -16 -10 -28 -10 -20 0 -20 -1 5 -14 53 -28 54 -30 23
-36 -18 -3 -30 -11 -30 -20 0 -8 6 -14 14 -12 8 2 21 0 30 -3 13 -5 12 -9 -8
-20 -14 -7 -31 -11 -38 -8 -7 3 -24 -2 -38 -11 -14 -9 -25 -13 -26 -9 -1 5 -1
44 0 88 0 55 -2 74 -8 60 -5 -11 -10 -35 -10 -52 -1 -23 -6 -33 -17 -33 -10 0
-14 -6 -10 -15 3 -10 -1 -15 -11 -15 -15 0 -15 -2 0 -18 24 -26 21 -39 -4 -16
-14 13 -20 14 -17 4 2 -10 -9 -15 -44 -16 -41 -2 -48 0 -48 17 0 14 9 20 41
25 27 5 36 10 27 15 -10 7 -10 9 0 9 6 0 12 5 12 11 0 7 -10 5 -25 -5 -34 -22
-55 -20 -55 5 0 14 5 19 18 17 9 -2 27 7 40 20 29 30 28 38 -3 18 -31 -20 -55
-21 -55 -1 0 8 6 15 13 15 18 0 53 27 45 35 -3 3 -15 1 -27 -6 -29 -19 -38 -3
-13 24 24 25 30 46 9 28 -8 -6 -17 -8 -20 -4 -11 10 -8 61 3 68 6 3 10 17 10
31 0 14 -4 23 -9 19 -6 -3 -12 16 -14 42 -3 43 -4 41 -5 -16 -2 -59 -3 -62
-19 -50 -17 13 -17 13 0 -7 22 -26 22 -38 0 -30 -15 6 -16 5 -1 -11 19 -22 20
-56 1 -49 -18 7 -17 -4 2 -18 10 -7 12 -16 5 -26 -8 -12 -11 -12 -28 3 -10 9
-22 17 -27 17 -5 0 9 -15 31 -34 21 -19 36 -37 32 -41 -4 -4 -14 0 -23 9 -21
20 -20 21 -23 -10 -1 -19 4 -27 18 -31 11 -3 20 -12 20 -20 0 -9 -6 -13 -15
-9 -21 8 -19 -20 3 -34 11 -8 13 -13 5 -16 -8 -4 -9 -13 -4 -27 5 -12 8 -55 9
-94 0 -56 -3 -73 -14 -73 -16 0 -19 -16 -3 -25 6 -5 4 -11 -7 -19 -14 -10 -15
-22 -10 -60 7 -42 10 -46 29 -40 76 22 149 124 80 111 l-28 -6 28 12 c18 7 27
18 27 34 0 13 -5 23 -12 23 -6 0 -8 3 -4 7 14 14 36 -30 36 -69 0 -66 -23
-104 -78 -132 -56 -28 -70 -51 -47 -76 8 -9 15 -26 15 -37 0 -11 9 -28 20 -38
40 -36 17 -77 -41 -73 -26 2 -35 -2 -46 -22 -12 -23 -11 -26 15 -37 15 -7 55
-12 88 -13 129 0 236 -36 267 -89 20 -35 23 -89 12 -234 -7 -99 -7 -110 12
-135 11 -15 23 -52 26 -84 13 -106 27 -158 45 -158 37 0 195 56 301 106 203
96 350 202 497 357 327 345 489 796 453 1262 -5 70 -12 132 -16 138 -4 6 -7
22 -8 36 -4 54 -17 111 -26 111 -5 0 -9 -5 -9 -10 0 -20 -31 -22 -50 -5 -29
26 -25 35 14 35 40 0 53 13 33 32 -8 7 -12 20 -9 30 3 12 -1 18 -12 18 -20 0
-56 35 -56 56 0 11 6 14 20 9 11 -3 20 -2 20 4 0 21 -13 41 -27 41 -10 0 -13
6 -9 16 3 8 3 27 0 40 -5 19 -11 23 -26 18 -17 -5 -18 -3 -7 13 10 16 3 33
-40 111 -49 85 -92 142 -56 73z m-154 -715 c-6 -7 -8 -21 -5 -31 8 -20 -19
-45 -45 -45 -13 1 -12 4 3 15 18 14 17 15 -20 12 -21 -1 -42 -6 -46 -12 -4 -5
-8 7 -8 27 0 36 1 37 30 34 25 -3 57 2 99 13 2 1 -2 -5 -8 -13z m-114 -123
c-3 -10 -5 -4 -5 12 0 17 2 24 5 18 2 -7 2 -21 0 -30z m77 17 c29 -11 32 -19
13 -44 -10 -14 -18 -15 -40 -7 -25 10 -36 38 -20 54 9 9 17 9 47 -3z m-224
-101 c-17 -32 -3 -36 21 -6 25 32 32 33 70 6 41 -29 36 -43 -6 -18 -29 17 -34
18 -29 5 5 -12 0 -16 -17 -16 -22 0 -22 0 -3 -15 19 -14 18 -14 -3 -15 -13 0
-23 5 -23 11 0 8 -4 8 -14 -1 -8 -6 -25 -10 -38 -8 l-23 3 23 20 c20 18 21 20
5 26 -10 3 -29 -1 -43 -9 -23 -13 -23 -13 3 12 17 16 40 26 58 26 27 0 29 -2
19 -21z m217 5 c5 -16 -44 -37 -50 -21 -7 21 5 38 26 35 11 -2 22 -8 24 -14z
m7 -49 c3 -8 1 -15 -4 -15 -6 0 -10 7 -10 15 0 8 2 15 4 15 2 0 6 -7 10 -15z
m-196 -75 l23 -30 -55 0 c-46 0 -57 4 -67 21 -11 21 -9 22 19 16 21 -4 32 -2
36 8 8 22 20 18 44 -15z m202 10 c0 -11 -7 -20 -15 -20 -8 0 -15 2 -15 4 0 2
-3 11 -6 20 -4 12 0 16 15 16 14 0 21 -6 21 -20z m-200 -70 c0 -5 -10 -10 -22
-9 -22 0 -22 1 -3 9 11 5 21 9 23 9 1 1 2 -3 2 -9z m35 -51 c7 -9 -2 -10 -37
-6 -30 4 -48 3 -50 -5 -5 -14 -48 7 -48 24 0 14 120 2 135 -13z m-771 5 c25
-10 19 -24 -10 -24 l-26 0 23 -20 c15 -12 19 -19 10 -20 -7 0 -11 -6 -7 -15 7
-20 -43 -33 -55 -14 -13 20 -11 29 6 35 12 5 13 10 4 20 -25 30 11 55 55 38z
m-164 -28 c0 -8 3 -22 7 -31 5 -15 3 -16 -15 -6 -15 8 -22 8 -22 1 0 -5 -5
-10 -11 -10 -5 0 -7 5 -4 10 4 7 -2 9 -19 4 -22 -5 -26 -3 -26 14 0 16 6 20
30 20 17 -1 33 2 37 5 11 12 23 8 23 -7z m430 -21 c28 -9 25 -25 -4 -25 -14 0
-37 -5 -52 -10 -33 -13 -61 -5 -75 22 -11 20 -9 20 27 13 22 -4 36 -3 32 1 -4
4 0 13 9 19 13 10 20 10 30 -1 7 -7 22 -16 33 -19z m477 -21 c-3 -3 -12 -4
-19 -1 -8 3 -5 6 6 6 11 1 17 -2 13 -5z m-982 -23 c3 -5 1 -12 -5 -16 -5 -3
-10 1 -10 9 0 18 6 21 15 7z m60 -9 c16 -1 17 -19 0 -25 -23 -9 -45 3 -45 24
0 16 4 18 18 10 9 -5 21 -9 27 -9z m435 -1 l25 -7 -33 -21 -32 -20 27 -13 c23
-11 25 -14 10 -18 -10 -2 -24 2 -32 8 -12 10 -18 10 -29 1 -11 -9 -20 -10 -35
-1 -31 16 -25 30 12 30 17 0 39 5 47 10 12 8 10 10 -9 10 -20 0 -21 2 -11 15
13 16 21 17 60 6z m495 -21 c3 -5 2 -10 -4 -10 -5 0 -13 5 -16 10 -3 6 -2 10
4 10 5 0 13 -4 16 -10z m-315 -8 c0 -16 -38 -44 -55 -40 -14 3 -14 5 0 26 15
21 55 31 55 14z m-683 -34 c-3 -7 -5 -2 -5 12 0 14 2 19 5 13 2 -7 2 -19 0
-25z m43 12 c0 -5 -2 -10 -4 -10 -3 0 -8 5 -11 10 -3 6 -1 10 4 10 6 0 11 -4
11 -10z m10 -30 c0 -5 -4 -10 -10 -10 -5 0 -10 5 -10 10 0 6 5 10 10 10 6 0
10 -4 10 -10z m617 -40 c-2 -32 -23 -40 -45 -18 -20 20 -14 36 13 30 15 -2 25
0 25 7 0 6 2 11 5 11 2 0 3 -13 2 -30z m-177 10 c0 -5 -5 -10 -11 -10 -5 0 -7
5 -4 10 3 6 8 10 11 10 2 0 4 -4 4 -10z m-450 -30 c0 -5 -2 -10 -4 -10 -3 0
-8 5 -11 10 -3 6 -1 10 4 10 6 0 11 -4 11 -10z m450 -11 c0 -5 -7 -9 -15 -9
-15 0 -20 12 -9 23 8 8 24 -1 24 -14z m-520 -19 c0 -5 -2 -10 -4 -10 -3 0 -8
5 -11 10 -3 6 -1 10 4 10 6 0 11 -4 11 -10z m680 -56 c0 -9 -5 -14 -12 -12
-18 6 -21 28 -4 28 9 0 16 -7 16 -16z"/>
<path d="M1526 2204 c-3 -9 -6 -31 -6 -50 0 -26 -3 -32 -15 -28 -10 4 -15 0
-15 -15 0 -12 -6 -21 -12 -21 -7 0 -5 -5 5 -11 9 -5 17 -18 17 -27 -1 -16 -2
-16 -14 1 -16 21 -27 22 -20 2 4 -10 0 -15 -12 -15 -12 0 -15 -3 -8 -8 6 -4
14 -20 18 -37 6 -24 5 -28 -5 -17 -27 26 -30 10 -6 -33 l25 -44 -34 -7 c-40
-7 -44 -21 -9 -30 13 -3 29 -12 36 -20 9 -12 5 -14 -24 -14 -20 0 -39 -5 -43
-11 -3 -6 -27 -20 -52 -31 -51 -23 -41 -42 14 -25 19 6 30 13 24 17 -22 14 14
29 50 21 l35 -7 -32 -17 c-18 -10 -33 -20 -33 -22 0 -2 12 -11 28 -19 l27 -15
-48 -1 c-34 0 -47 -4 -44 -12 2 -7 15 -12 29 -10 15 2 29 -2 33 -7 3 -6 1 -11
-5 -11 -7 0 -9 -8 -5 -19 4 -13 0 -20 -17 -24 -21 -6 -21 -7 -3 -27 16 -18 14
-25 -7 -21 -33 5 32 -74 82 -99 47 -24 140 -60 140 -54 0 3 -7 16 -16 30 -9
14 -23 50 -30 80 -11 49 -11 55 3 50 8 -3 24 -6 36 -7 22 0 22 0 -1 -10 -18
-7 -22 -14 -17 -31 15 -50 102 -168 124 -168 3 0 6 42 6 93 0 77 -4 100 -24
140 -13 27 -25 70 -27 95 l-4 47 16 -43 c13 -34 20 -42 34 -37 10 3 21 1 25
-5 9 -14 25 -2 19 14 -3 8 -14 12 -25 9 -14 -4 -19 0 -19 17 0 17 4 20 20 15
14 -5 20 -2 20 10 0 20 -28 31 -43 16 -22 -22 -27 -9 -28 82 -1 50 -3 81 -6
67 -12 -82 -15 -90 -30 -90 -9 0 -13 -6 -9 -15 3 -8 1 -15 -5 -15 -6 0 -8 -7
-5 -16 5 -12 2 -15 -9 -10 -9 3 -13 2 -10 -4 7 -12 -19 -24 -37 -17 -9 2 -2
14 18 33 l31 29 -28 2 c-16 1 -31 -2 -34 -7 -4 -6 -11 -10 -18 -10 -21 0 19
31 59 45 l39 14 -32 1 c-18 0 -33 2 -33 4 0 3 12 18 26 33 22 24 24 28 9 31
-11 3 -15 10 -12 23 4 16 1 19 -13 14 -28 -9 -47 30 -23 45 13 8 14 13 6 16
-21 9 -15 31 15 53 32 24 9 29 -26 5 -26 -18 -25 -21 -22 79 2 76 -2 92 -14
61z m92 -533 c3 -10 0 -10 -16 -2 -10 6 -22 7 -26 4 -3 -3 -6 1 -6 10 0 13 5
15 22 8 12 -4 24 -14 26 -20z"/>
<path d="M1302 2111 l-2 -64 -22 19 -22 19 22 -32 c27 -38 28 -50 5 -32 -16
13 -17 12 -4 -4 20 -25 24 -70 5 -63 -17 7 -18 -6 -2 -22 14 -14 14 -15 17
-87 1 -33 4 -45 10 -36 5 7 15 11 22 9 8 -3 24 6 37 19 29 31 28 39 -3 19 -33
-22 -55 -20 -55 4 0 11 7 20 16 20 24 0 55 20 48 31 -4 6 -15 4 -30 -5 -13 -9
-26 -16 -29 -16 -13 0 -3 28 15 45 11 10 20 21 20 26 0 4 -9 5 -20 2 -17 -5
-20 0 -20 30 0 20 5 39 10 42 6 3 10 18 10 33 0 20 -3 23 -10 12 -6 -10 -10 2
-13 40 l-3 55 -2 -64z"/>
<path d="M1245 1910 c10 -11 20 -20 23 -20 3 0 -3 9 -13 20 -10 11 -20 20 -23
20 -3 0 3 -9 13 -20z"/>
<path d="M1254 1862 c3 -5 1 -12 -5 -14 -12 -4 -1 -38 12 -38 13 0 11 48 -3
56 -6 4 -8 3 -4 -4z"/>
<path d="M1230 1775 c9 -10 9 -15 1 -15 -6 0 -11 -4 -11 -8 0 -4 16 -6 35 -4
19 2 35 8 35 13 0 11 -34 29 -56 29 -13 0 -14 -3 -4 -15z"/>
<path d="M1330 1711 c0 -6 5 -13 10 -16 6 -3 10 1 10 9 0 9 -4 16 -10 16 -5 0
-10 -4 -10 -9z"/>
<path d="M1741 1626 c-7 -8 -8 -17 -3 -20 6 -3 13 1 16 10 9 23 2 28 -13 10z"/>
<path d="M1962 731 c-11 -7 -10 -22 8 -81 l22 -73 -35 -76 c-19 -42 -37 -91
-41 -109 l-6 -34 38 6 c20 3 77 11 126 17 l88 13 -5 47 c-7 57 -52 149 -102
210 -21 24 -42 54 -48 67 -11 23 -23 27 -45 13z"/>
<path d="M1686 628 c-3 -51 -8 -132 -12 -180 l-6 -88 30 0 c18 0 32 6 36 16 9
23 7 95 -3 131 -6 19 -5 62 1 113 9 68 8 84 -3 91 -31 20 -37 9 -43 -83z"/>
<path d="M1787 612 c-25 -122 -29 -157 -22 -206 7 -45 8 -46 45 -46 21 0 42 6
47 13 17 21 53 140 53 175 0 26 -24 82 -54 128 -1 1 -13 4 -27 7 -26 7 -27 5
-42 -71z"/>
</g>
</svg>
