<?xml version="1.0" standalone="no"?>
<!DOCTYPE svg PUBLIC "-//W3C//DTD SVG 20010904//EN"
 "http://www.w3.org/TR/2001/REC-SVG-20010904/DTD/svg10.dtd">
<svg version="1.0" xmlns="http://www.w3.org/2000/svg"
 width="207.000000pt" height="216.000000pt" viewBox="0 0 207.000000 216.000000"
 preserveAspectRatio="xMidYMid meet">

<g transform="translate(0.000000,216.000000) scale(0.100000,-0.100000)"
fill="#FFFFFF" stroke="none">
<path d="M430 1965 c-16 -20 -7 -92 25 -193 30 -94 108 -216 175 -274 28 -24
50 -46 50 -50 0 -4 -18 -20 -41 -35 -40 -26 -41 -26 -72 -8 -78 44 -121 102
-171 228 -14 33 -19 38 -43 35 -26 -3 -28 -7 -27 -43 2 -108 113 -249 248
-313 117 -57 171 -114 211 -225 19 -51 27 -63 47 -65 14 -2 30 4 37 12 29 34
-50 195 -130 268 l-46 41 72 72 c53 53 82 93 113 156 69 141 76 209 22 209
-24 0 -34 -15 -59 -91 -12 -36 -37 -91 -57 -122 l-36 -57 -28 20 c-53 38 -133
135 -162 197 -16 34 -37 100 -46 145 -10 46 -21 89 -25 96 -11 17 -42 15 -57
-3z"/>
<path d="M1553 1968 c-4 -7 -15 -51 -25 -98 -23 -112 -76 -215 -147 -286 -83
-82 -83 -82 -122 -22 -18 28 -45 85 -60 127 -29 82 -48 103 -76 85 -57 -37 56
-283 177 -385 l50 -42 -39 -33 c-82 -71 -170 -244 -141 -279 7 -9 24 -15 38
-13 20 2 29 15 50 71 34 94 99 163 199 213 144 73 253 205 256 312 2 44 0 47
-25 50 -22 3 -30 -2 -39 -25 -59 -141 -101 -198 -172 -234 l-39 -20 -39 25
c-21 15 -39 30 -39 34 0 4 22 26 49 49 70 60 145 178 175 272 33 104 42 176
26 196 -15 18 -46 20 -57 3z"/>
<path d="M335 1253 c-43 -11 -48 -24 -41 -99 16 -195 115 -301 292 -312 l74
-5 0 -34 c0 -93 55 -253 154 -452 44 -87 65 -117 96 -140 72 -52 164 -50 230
6 33 27 118 187 175 328 36 90 65 205 65 258 l0 34 74 5 c177 11 278 120 293
313 7 90 -1 97 -110 103 -105 5 -180 -21 -242 -83 -66 -65 -86 -131 -95 -305
-9 -177 -28 -242 -133 -452 -69 -137 -74 -144 -112 -157 -35 -12 -45 -11 -78
2 -34 15 -43 28 -107 159 -102 207 -121 272 -130 448 -11 213 -48 293 -161
355 -46 25 -67 29 -139 31 -47 2 -94 0 -105 -3z m206 -101 c45 -23 58 -37 81
-82 15 -30 30 -76 34 -102 l6 -48 -48 0 c-136 0 -219 74 -239 213 l-7 47 60 0
c46 0 72 -6 113 -28z m1124 -19 c-20 -139 -103 -213 -239 -213 l-48 0 7 48
c20 137 101 210 234 212 l53 0 -7 -47z"/>
</g>
</svg>
